<?xml version="1.0" encoding="UTF-8" standalone="no"?>
<svg
   version="1.0"
   width="341.000000pt"
   height="341.000000pt"
   viewBox="0 0 341.000000 341.000000"
   preserveAspectRatio="xMidYMid meet"
   id="svg12"
   sodipodi:docname="pdf_news.svg"
   inkscape:version="1.1.1 (3bf5ae0d25, 2021-09-20)"
   xmlns:inkscape="http://www.inkscape.org/namespaces/inkscape"
   xmlns:sodipodi="http://sodipodi.sourceforge.net/DTD/sodipodi-0.dtd"
   xmlns="http://www.w3.org/2000/svg"
   xmlns:svg="http://www.w3.org/2000/svg">
  <defs
     id="defs16" />
  <sodipodi:namedview
     id="namedview14"
     pagecolor="#ffffff"
     bordercolor="#666666"
     borderopacity="1.0"
     inkscape:pageshadow="2"
     inkscape:pageopacity="0.0"
     inkscape:pagecheckerboard="0"
     inkscape:document-units="pt"
     showgrid="false"
     inkscape:zoom="1"
     inkscape:cx="33.5"
     inkscape:cy="214.5"
     inkscape:window-width="1920"
     inkscape:window-height="1442"
     inkscape:window-x="2869"
     inkscape:window-y="57"
     inkscape:window-maximized="1"
     inkscape:current-layer="svg12" />
  <g
     transform="translate(0.000000,341.000000) scale(0.100000,-0.100000)"
     fill="#000000"
     stroke="none"
     id="g10">
    <path
       d="M817 3392 c-13 -14 -17 -44 -19 -142 l-3 -125 -397 -3 -398 -2 0 -515 0 -515 400 0 400 0 0 -1028 c0 -984 1 -1030 18 -1045 17 -16 121 -17 1285 -17 1254 0 1267 0 1287 20 20 20 20 33 20 1387 l0 1368 -318 317 -317 318 -971 0 c-921 0 -972 -1 -987 -18z m1883 -337 c0 -292 1 -306 20 -325 19 -19 33 -20 330 -20 l310 0 -2 -1327 -3 -1328 -1252 -3 -1253 -2 0 1020 0 1020 810 0 810 0 0 515 0 515 -810 0 -810 0 0 120 0 120 925 0 925 0 0 -305z m358 -293 c-156 -1 -288 0 -295 3 -10 3 -13 71 -13 297 l0 293 295 -295 295 -295 -282 -3z m-2133 84 c45 -19 75 -69 75 -126 0 -100 -70 -160 -187 -160 l-63 0 0 -95 0 -95 -30 0 -30 0 0 245 0 245 100 0 c65 0 113 -5 135 -14z m414 -19 c60 -40 91 -109 91 -203 0 -93 -22 -154 -70 -198 -48 -43 -92 -56 -192 -56 l-78 0 0 246 0 246 103 -4 c94 -3 108 -6 146 -31z m491 8 l0 -25 -110 0 -110 0 0 -85 0 -85 100 0 100 0 0 -30 0 -30 -100 0 -100 0 0 -105 0 -105 -35 0 -35 0 0 245 0 245 145 0 145 0 0 -25z"
       id="path2"
       style="fill:#ff0000" />
    <path
       d="M1928 1909 c-10 -5 -22 -26 -28 -47 -20 -74 -11 -177 36 -384 l27 -116 -102 -209 c-204 -417 -347 -639 -459 -713 -56 -37 -66 -37 -58 -2 12 47 75 129 169 218 94 90 84 93 -36 12 -117 -79 -187 -162 -187 -220 0 -33 43 -60 96 -60 87 0 205 125 336 353 l27 45 113 32 c168 47 313 81 403 94 79 11 80 11 140 -19 127 -64 326 -115 388 -100 25 7 57 32 57 45 0 4 -27 5 -59 4 -67 -4 -135 13 -251 61 -71 30 -73 32 -45 38 17 4 75 7 131 8 107 1 181 -14 215 -45 18 -16 19 -16 19 5 0 76 -148 107 -385 80 l-94 -10 -53 34 c-104 67 -219 211 -273 345 -19 47 -22 66 -15 96 5 21 11 77 14 125 l6 86 -23 -77 c-12 -42 -25 -79 -28 -82 -10 -10 -40 144 -46 234 -6 106 5 165 32 165 22 0 65 -67 65 -102 0 -13 5 -23 11 -23 20 0 4 89 -22 116 -24 26 -87 33 -121 13z m126 -712 c22 -34 79 -101 127 -149 l88 -86 -77 -17 c-122 -26 -257 -64 -343 -95 -43 -16 -79 -28 -79 -26 0 2 38 78 84 167 47 90 97 195 112 233 23 59 29 67 38 52 6 -10 29 -45 50 -79z"
       id="path4" />
    <path
       d="M750 2715 l0 -97 71 4 c86 5 109 24 109 92 0 62 -30 87 -114 93 l-66 6 0 -98z"
       id="path6" />
    <path
       d="M1160 2621 l0 -191 49 0 c97 0 151 67 151 185 -1 126 -42 179 -151 192 l-49 6 0 -192z"
       id="path8" />
  </g>
  <path
     style="fill:#ff0000;stroke-width:0.581415"
     d="m 126.74851,453.81424 c -16.01005,-0.43788 -17.54152,-0.75247 -18.49413,-3.79889 -0.74005,-2.36663 -1.44186,-91.64487 -1.50942,-192.01237 l -0.0553,-82.12489 H 53.490196 0.29070759 V 107.32939 38.780683 L 52.860437,38.577042 c 28.913351,-0.112002 52.754683,-0.38864 52.980733,-0.61475 0.22605,-0.226111 0.62882,-7.159487 0.89505,-15.407503 0.26622,-8.248015 0.77009,-15.9800038 1.11972,-17.1821964 1.08846,-3.7426896 1.90451,-3.968064 16.40252,-4.53001276 7.12554,-0.27618861 65.28356,-0.51334611 129.24005,-0.5270167 l 116.28453,-0.0248556 42.32949,42.33247246 42.3295,42.332473 -0.25051,179.332067 c -0.17157,122.82652 -0.44488,180.41426 -0.86742,182.76666 -0.77637,4.3224 -1.94732,5.49335 -6.26972,6.26971 -3.93903,0.70751 -296.01693,1.15445 -320.30587,0.49015 z m 284.97022,-6.16019 35.5431,-0.39289 0.38445,-32.6357 c 0.21146,-17.94963 0.43854,-97.5448 0.50464,-176.87817 L 448.2711,93.504816 408.73487,93.122798 C 366.14622,92.711283 364.46836,92.589599 362.36731,89.76002 360.58473,87.359328 360.23986,79.578725 360.21204,41.135124 L 360.1867,6.1048593 H 236.63598 113.08525 V 22.384484 38.664109 H 220.93777 328.79028 V 107.2711 175.87809 H 220.93777 113.08525 l -1e-5,136.19651 -1e-5,136.1965 131.54519,-0.11208 c 72.34986,-0.0616 147.5396,-0.28888 167.08831,-0.50497 z M 100.29412,126.16709 v -12.50042 l 5.37809,-0.005 c 17.82998,-0.0145 26.94019,-6.63953 27.65057,-20.107557 0.30277,-5.740172 -0.78572,-9.848841 -3.62775,-13.693472 -4.00065,-5.411708 -10.048,-6.863449 -28.67414,-6.883311 l -9.448,-0.01008 v 32.84996 32.84996 h 4.360614 4.360616 z m 68.77001,11.64488 c 10.22768,-2.16725 17.66537,-9.63559 20.57201,-20.65681 1.26774,-4.80693 1.427,-18.033571 0.27302,-22.675194 -2.15011,-8.648347 -7.32995,-15.418764 -14.28732,-18.674509 -3.4395,-1.609537 -4.55681,-1.810992 -12.65964,-2.282543 -4.88794,-0.284463 -10.91486,-0.525774 -13.39315,-0.536257 l -4.50596,-0.01905 v 32.849953 32.84996 l 10.02941,-0.0101 c 6.46453,-0.007 11.43064,-0.30702 13.97163,-0.84545 z m 45.76878,-13.09842 v -13.95396 h 13.37255 13.37255 v -4.06991 -4.0699 H 228.20546 214.83291 V 91.57289 80.526002 h 14.82608 14.82609 v -3.779199 -3.779199 h -19.76811 -19.76812 v 32.849956 32.84996 h 4.94203 4.94203 z M 426.6166,86.404865 445.66116,86.049446 406.09814,46.513214 366.53513,6.9769821 366.74442,45.350384 c 0.11512,21.10537 0.41541,38.952636 0.66731,39.66059 0.42009,1.18061 0.89816,1.30301 5.77378,1.478225 9.06795,0.325878 33.51882,0.287283 53.43109,-0.08433 z"
     id="path111"
     transform="scale(0.75)" />
  <path
     style="fill:#ff0000;stroke-width:0.581415"
     d="m 100.29412,92.617922 c 0,-6.970335 0.21619,-12.673335 0.48043,-12.673335 0.26424,0 3.33066,0.286857 6.81426,0.63746 7.9338,0.798489 11.94063,2.230092 14.0755,5.029043 1.47434,1.932967 1.59571,2.501322 1.59571,7.472797 0,5.950468 -0.74078,7.664303 -4.18464,9.681383 -1.77186,1.03779 -7.81256,1.98634 -14.85671,2.3329 l -3.92455,0.19309 z"
     id="path150"
     transform="scale(0.75)" />
  <path
     style="fill:#ff0000;stroke-width:0.145354"
     d="m 154.72911,105.17835 c 0,-23.469998 0.0185,-25.451794 0.23786,-25.451794 0.46518,0 7.26976,0.874769 8.55605,1.099931 8.73356,1.528785 13.7152,5.415802 16.0067,12.489514 1.14324,3.52913 1.66298,7.428609 1.66626,12.501559 0.003,4.18798 -0.24382,6.49597 -1.03255,9.66704 -1.01021,4.0615 -2.78327,7.41806 -5.21705,9.87635 -1.94302,1.96257 -4.02441,3.24213 -6.74876,4.14888 -2.57092,0.85568 -3.57989,0.97659 -8.78085,1.05218 l -4.68766,0.0681 z"
     id="path283"
     transform="scale(0.75)" />
  <path
     style="fill:#ff0000;stroke-width:0.0363384"
     d="M 100.02158,92.612394 V 79.63571 l 0.0818,-1.6e-5 c 0.045,-9e-6 2.06857,0.179564 4.49688,0.399051 2.42832,0.219487 4.7994,0.433048 5.26908,0.474579 5.01463,0.44342 8.47224,1.500528 10.64764,3.255338 1.9572,1.578797 3.00523,3.724615 3.36299,6.885606 0.0794,0.701969 0.11098,2.897647 0.0558,3.884206 -0.19117,3.416471 -0.94788,5.589876 -2.47949,7.121486 -1.98434,1.98434 -5.32329,2.95904 -11.51424,3.36121 -0.46968,0.0305 -2.75082,0.16126 -5.06922,0.29055 -2.31839,0.12929 -4.35834,0.24548 -4.53322,0.25821 l -0.31796,0.0232 z m 2.87074,12.569366 c 2.22744,-0.11175 3.36271,-0.18014 4.56047,-0.27472 5.22614,-0.41268 9.53422,-1.15467 11.26763,-1.94063 0.50608,-0.22947 1.50122,-0.87923 2.05489,-1.3417 1.57658,-1.31691 2.21163,-2.850795 2.43148,-5.872898 0.0618,-0.84949 0.0858,-4.035701 0.0394,-5.232737 -0.0881,-2.274608 -0.27215,-3.026469 -1.01482,-4.146231 -0.38975,-0.587641 -0.75828,-1.056678 -1.15035,-1.464088 -2.05849,-2.139033 -5.49183,-3.362557 -11.58196,-4.127416 -1.25618,-0.157764 -6.26098,-0.656206 -8.24018,-0.820663 -0.43811,-0.0364 -0.49319,-0.03452 -0.53174,0.01821 -0.12628,0.1727 -0.25393,1.922912 -0.34203,4.6897 -0.0804,2.526494 -0.10859,5.913839 -0.10889,13.109095 l -3.1e-4,7.512968 0.22711,-2.1e-4 c 0.12492,-1.1e-4 1.20008,-0.049 2.38926,-0.10869 z"
     id="path494"
     transform="scale(0.75)" />
  <path
     style="fill:#ff0000;stroke-width:0.00908461"
     d="m 100.29875,92.978734 c 1.4e-4,-2.632996 0.0211,-4.729587 0.0682,-6.829357 0.0787,-3.507692 0.2181,-5.816018 0.37138,-6.150809 l 0.0238,-0.05201 0.10211,0.0063 c 0.59776,0.03698 3.31442,0.291895 6.30691,0.591801 1.9861,0.199046 3.30389,0.366801 4.67857,0.595583 1.25093,0.208185 2.5429,0.485789 3.46124,0.743714 0.12492,0.03508 0.25267,0.07077 0.2839,0.07931 l 0.0568,0.01552 v 6.307363 6.307364 h -7.67649 -7.6765 l 9e-5,-1.61479 z"
     id="path533"
     transform="scale(0.75)" />
  <path
     style="fill:#ff0000;stroke-width:0.00908461"
     d="m 100.29873,92.965107 c 1.5e-4,-3.201017 0.0345,-5.901837 0.10468,-8.223845 0.0829,-2.742256 0.20421,-4.457172 0.33575,-4.744497 l 0.0229,-0.0501 0.10668,0.0063 c 0.47311,0.02784 2.6621,0.230695 5.25766,0.487228 1.41061,0.139418 1.83533,0.182809 2.35746,0.240851 2.79949,0.3112 5.04446,0.7083 6.87932,1.216846 l 0.28843,0.07994 v 6.307856 6.307856 h -7.67649 -7.6765 l 7e-5,-1.628417 z"
     id="path572"
     transform="scale(0.75)" />
  <path
     style="fill:#ff0000;stroke-width:0.00908461"
     d="m 100.29875,92.946938 c 1.5e-4,-2.63838 0.021,-4.724329 0.0683,-6.820273 0.0812,-3.600299 0.22559,-5.915897 0.38403,-6.157706 0.0145,-0.02216 0.0152,-0.02224 0.1195,-0.01614 0.79216,0.04636 6.60906,0.608265 8.05393,0.778006 2.63954,0.310089 4.70568,0.685249 6.46143,1.173234 l 0.26572,0.07385 v 6.307804 6.307804 h -7.67649 -7.6765 z"
     id="path611"
     transform="scale(0.75)" />
  <path
     style="fill:#ff0000;stroke-width:0.00390625"
     d="m 100.02539,83.374459 v -3.73687 l 0.0752,0.0022 c 0.0414,0.0012 0.15693,0.0094 0.25683,0.01815 1.51534,0.133143 2.37099,0.209716 5.59143,0.500386 0.66581,0.0601 1.21117,0.109263 1.21191,0.109263 7.4e-4,0 0.001,0.05803 0.001,0.128953 v 0.128952 l -0.0147,-0.0021 c -0.0446,-0.0064 -1.58217,-0.160695 -2.37207,-0.238033 -1.65123,-0.161671 -3.3079,-0.313907 -3.7413,-0.343799 -0.10471,-0.0072 -0.22132,-0.0073 -0.24893,-2.31e-4 l -0.0195,0.005 0.0293,4.97e-4 c 0.26718,0.0045 3.10843,0.26849 5.93438,0.551297 0.23568,0.02359 0.42948,0.04288 0.43066,0.04288 0.001,0 0.002,1.47832 0.002,3.285156 v 3.285156 h -3.4082 -3.40821 l 2e-5,-0.05762 c 5e-5,-0.126731 0.0255,-1.259679 0.041,-1.825195 0.0862,-3.139853 0.21947,-5.060984 0.36532,-5.265822 0.0101,-0.01415 0.005,-0.01493 -0.0113,-0.0016 -0.0162,0.01365 -0.0251,0.02932 -0.0388,0.06841 -0.0507,0.144471 -0.10386,0.562244 -0.15292,1.200953 -0.0929,1.208989 -0.17695,3.329361 -0.213,5.371093 -0.003,0.189063 -0.007,0.381104 -0.008,0.426758 l -0.002,0.08301 h -0.14996 -0.14996 z"
     id="path650"
     transform="scale(0.75)" />
  <path
     style="fill:#ff0000;stroke-width:0.00390625"
     d="m 100.02539,83.374459 v -3.73687 l 0.0752,0.0022 c 0.0414,0.0012 0.15781,0.0094 0.25879,0.01822 0.36647,0.03206 0.89799,0.07881 1.04687,0.09207 1.48666,0.132465 1.42644,0.127078 2.09766,0.187623 0.60603,0.05466 0.72425,0.06532 1.10351,0.09946 0.34568,0.03111 0.65865,0.05934 1.68946,0.152347 0.14179,0.01279 0.38525,0.03473 0.54101,0.04874 0.15576,0.01401 0.29243,0.02656 0.30371,0.02788 l 0.0205,0.0024 v 0.128503 0.128502 l -0.0147,-0.0021 c -0.0361,-0.0052 -1.62526,-0.164828 -2.29199,-0.230169 -1.58779,-0.155605 -2.93387,-0.28014 -3.74609,-0.346578 -0.11788,-0.0096 -0.31272,-0.01251 -0.3298,-0.0049 -0.008,0.0034 0.002,0.0048 0.0495,0.0069 0.20129,0.0091 1.17136,0.09267 2.13773,0.1842 0.0784,0.0074 0.32011,0.03028 0.53711,0.05079 0.37263,0.03522 1.38943,0.132988 1.64453,0.158133 0.0645,0.0064 0.36855,0.03624 0.67578,0.06642 0.63976,0.06285 1.29209,0.127706 1.31933,0.131175 l 0.0186,0.0024 v 3.284789 3.28479 h -3.4082 -3.40821 l 10e-6,-0.06152 c 2e-5,-0.0577 0.002,-0.140754 0.0118,-0.614258 0.0701,-3.27024 0.19028,-5.561115 0.3284,-6.25947 0.0193,-0.09754 0.0346,-0.151746 0.0541,-0.191661 0.008,-0.01716 0.0148,-0.03174 0.0141,-0.03239 -0.004,-0.0038 -0.0277,0.02303 -0.0371,0.04166 -0.0877,0.174144 -0.17537,1.079629 -0.25013,2.58444 -0.0598,1.204743 -0.10636,2.634941 -0.13089,4.025391 -0.003,0.187988 -0.007,0.37915 -0.008,0.424804 l -0.002,0.08301 h -0.14996 -0.14996 z"
     id="path689"
     transform="scale(0.75)" />
  <path
     style="fill:#ff0000;stroke-width:0.0110485"
     d="m 122.39041,99.587052 c 0.43579,-0.939155 0.68134,-2.061261 0.81137,-3.707792 0.0478,-0.604963 0.0658,-1.525949 0.0664,-3.386379 3.2e-4,-1.119324 -0.004,-1.684541 -0.0138,-1.922446 -0.10424,-2.466522 -0.27537,-3.119567 -1.15303,-4.400072 -0.56045,-0.817701 -1.13342,-1.445734 -1.82689,-2.002436 -1.00212,-0.804491 -2.32643,-1.477691 -3.94433,-2.005062 -1.74821,-0.569847 -3.97645,-1.02532 -6.70094,-1.369734 -0.53034,-0.06704 -2.02833,-0.230712 -2.54945,-0.278551 l -0.14639,-0.01344 V 80.374521 80.2479 l 0.0746,0.0071 c 0.16699,0.01596 1.2223,0.1121 2.26218,0.206083 1.43638,0.129817 1.92036,0.181786 2.73452,0.29363 3.42818,0.47094 6.01768,1.305563 7.84363,2.52808 1.56692,1.049091 2.64815,2.416127 3.30405,4.177449 0.34716,0.932227 0.60243,2.065222 0.72314,3.209602 0.0729,0.691364 0.10759,2.785002 0.0617,3.723359 -0.10573,2.159497 -0.44964,3.849846 -1.05315,5.176243 l -0.0905,0.198873 -0.24496,0.003 -0.24496,0.003 z"
     id="path728"
     transform="scale(0.75)" />
  <path
     style="fill:#ff0000;stroke-width:0.0110485"
     d="m 106.93333,90.144565 v -9.629306 l 0.0359,0.0056 c 0.0465,0.0072 0.15435,0.01865 0.74301,0.07869 3.42546,0.349386 6.09608,0.820595 8.10411,1.429904 2.16362,0.656519 3.71708,1.466406 4.90419,2.556765 0.35979,0.330463 0.66237,0.665353 0.98117,1.085934 0.0949,0.125158 0.14819,0.186756 0.15698,0.181328 0.0134,-0.0083 -0.0706,-0.124487 -0.26809,-0.370876 -0.27135,-0.338489 -0.65247,-0.741129 -0.96261,-1.016955 -1.05042,-0.934208 -2.41747,-1.673624 -4.1874,-2.264906 -1.75377,-0.585885 -4.00031,-1.050112 -6.81143,-1.407519 -0.5082,-0.06461 -2.02633,-0.23021 -2.54945,-0.278092 l -0.14639,-0.0134 v -0.125308 -0.125307 h 0.0275 c 0.0151,0 0.1009,0.0074 0.19059,0.01655 0.0897,0.0091 0.79946,0.07381 1.57728,0.143797 0.77781,0.06999 1.58574,0.144691 1.79538,0.166011 2.71299,0.275901 4.95839,0.748314 6.76171,1.422601 2.00435,0.749456 3.4726,1.747671 4.54545,3.090303 1.09304,1.367896 1.75205,3.134283 2.02805,5.435884 0.0386,0.321904 0.0559,0.596025 0.0796,1.265058 0.0182,0.511384 0.0183,2.241082 2.2e-4,2.585359 -0.11434,2.176837 -0.4298,3.767281 -1.01026,5.093379 -0.0426,0.09723 -0.0917,0.205364 -0.10929,0.240305 l -0.0319,0.06353 h -0.24249 -0.24249 l 0.0613,-0.129821 c 0.4137,-0.875569 0.65934,-1.898382 0.79936,-3.328373 0.0828,-0.845508 0.10357,-1.603147 0.10454,-3.811748 5e-4,-1.131851 -0.003,-1.65856 -0.0145,-1.944544 -0.008,-0.215722 -0.0171,-0.394295 -0.0193,-0.396827 -0.0149,-0.01664 -0.0153,0.05497 -0.002,0.442778 0.0199,0.598384 0.0204,3.602336 6.3e-4,4.11935 -0.0529,1.383157 -0.13818,2.252816 -0.3016,3.07702 -0.13965,0.704301 -0.32816,1.294328 -0.58156,1.820247 l -0.0732,0.151918 h -7.67133 -7.67132 z m 16.28665,-0.204615 c -0.008,-0.02112 -0.0109,-0.0088 -0.0115,0.05734 -10e-4,0.128972 0.0151,0.183351 0.019,0.06419 0.002,-0.05205 -0.002,-0.106736 -0.008,-0.121534 z m -9.9e-4,-0.08491 c 3.4e-4,-0.09912 -0.0484,-0.684127 -0.0577,-0.693296 -0.008,-0.0075 -0.009,0.01374 -0.004,0.06629 0.017,0.188843 0.0398,0.525302 0.0398,0.588335 1e-5,0.03866 0.005,0.06905 0.0111,0.06905 0.006,0 0.0111,-0.01367 0.0112,-0.03038 z m -0.0722,-0.906436 c -0.019,-0.173219 -0.0218,-0.18825 -0.0335,-0.176575 -0.006,0.0064 0.0263,0.332769 0.0363,0.362093 0.0157,0.04593 0.0146,-0.02754 -0.003,-0.185518 z m -0.0273,-0.212967 c 0,-0.01256 -0.0102,-0.08828 -0.0226,-0.168273 -0.11245,-0.723393 -0.28882,-1.238462 -0.62012,-1.81103 -0.16981,-0.293472 -0.57091,-0.881532 -0.60126,-0.881532 -0.0207,0 -0.0272,-0.01039 0.12025,0.19249 0.52575,0.72328 0.81124,1.303437 0.97634,1.984073 0.0425,0.175359 0.0952,0.451015 0.116,0.607367 0.007,0.05486 0.0174,0.09974 0.0223,0.09974 0.005,0 0.009,-0.01028 0.009,-0.02284 z"
     id="path767"
     transform="scale(0.75)" />
  <path
     style="fill:#ff0000;stroke-width:0.0110485"
     d="m 106.93333,90.144389 v -9.629483 l 0.0469,0.0063 c 0.0584,0.0078 0.22428,0.02535 0.84246,0.08925 5.68394,0.587485 9.20324,1.490565 11.57334,2.969811 0.92653,0.57827 1.6528,1.23693 2.30818,2.093293 0.12677,0.165653 0.15565,0.196903 0.15565,0.168445 0,-0.01309 -0.14162,-0.200489 -0.29098,-0.385034 -0.36554,-0.451649 -0.83189,-0.91662 -1.28344,-1.279645 -1.38043,-1.109795 -3.33936,-1.954729 -5.94964,-2.566215 -1.98946,-0.466055 -4.21332,-0.801719 -7.26165,-1.096058 l -0.14087,-0.0136 V 80.374648 80.24789 l 0.0746,0.0066 c 1.00962,0.08973 3.44466,0.314267 3.67954,0.339294 4.11516,0.438474 7.0798,1.305998 9.13953,2.674443 0.85168,0.565841 1.58208,1.248994 2.15327,2.013975 0.99402,1.331277 1.60127,3.005929 1.8675,5.150097 0.0697,0.561522 0.0958,1.141217 0.10734,2.386486 0.0106,1.141076 -0.0151,1.830425 -0.10125,2.723465 -0.14145,1.465259 -0.42853,2.738603 -0.84193,3.734408 -0.10061,0.242344 -0.21434,0.487391 -0.22878,0.492932 -0.007,0.0026 -0.11703,0.0034 -0.24508,0.0017 l -0.23282,-0.003 0.0795,-0.171252 c 0.37739,-0.813404 0.61205,-1.758185 0.75055,-3.021777 0.10833,-0.988275 0.13098,-1.686572 0.13225,-4.076912 8.3e-4,-1.548172 -0.0122,-2.303811 -0.0402,-2.331243 -0.008,-0.0075 -0.009,0.04393 -0.004,0.160204 0.0215,0.540905 0.0312,1.597713 0.0259,2.817379 -0.005,1.251314 -0.0104,1.51205 -0.041,2.148941 -0.0932,1.941356 -0.35769,3.286041 -0.8465,4.303436 l -0.0849,0.176749 h -7.67149 -7.6715 z m 16.28669,-0.193281 c -0.008,-0.02126 -0.0109,-0.009 -0.0115,0.05771 -9.3e-4,0.111727 0.0148,0.150734 0.0191,0.04725 0.002,-0.04287 -0.002,-0.0901 -0.008,-0.104961 z m -0.0173,-0.351031 c -0.0344,-0.475874 -0.0714,-0.830555 -0.0866,-0.830555 -0.006,0 -0.008,0.02032 -0.004,0.05023 0.0292,0.212982 0.0845,0.859974 0.0845,0.989258 0,0.0598 0.0127,0.09736 0.0203,0.05999 0.002,-0.01013 -0.004,-0.13114 -0.0144,-0.268918 z m -0.11109,-1.05838 c -0.13169,-0.849868 -0.3638,-1.431701 -0.88034,-2.206698 -0.17418,-0.261332 -0.3202,-0.460195 -0.33791,-0.460195 -0.0113,0 -0.0129,0.0041 -0.005,0.01381 0.0514,0.06549 0.31405,0.441342 0.39506,0.565339 0.35286,0.540156 0.56773,1.023202 0.70812,1.591889 0.039,0.158013 0.10672,0.510539 0.12096,0.629767 0.004,0.03646 0.0109,0.07126 0.0146,0.07734 0.0163,0.02717 0.0117,-0.03833 -0.0151,-0.211253 z"
     id="path806"
     transform="scale(0.75)" />
  <path
     style="fill:#ff0000;stroke-width:0.0110485"
     d="m 106.93333,90.144389 v -9.629483 l 0.0469,0.0063 c 0.0584,0.0078 0.22428,0.02535 0.84246,0.08925 5.68394,0.587485 9.20324,1.490565 11.57334,2.969811 0.92653,0.57827 1.6528,1.23693 2.30818,2.093293 0.12677,0.165653 0.15565,0.196903 0.15565,0.168445 0,-0.01309 -0.14162,-0.200489 -0.29098,-0.385034 -0.36554,-0.451649 -0.83189,-0.91662 -1.28344,-1.279645 -1.38043,-1.109795 -3.33936,-1.954729 -5.94964,-2.566215 -1.98946,-0.466055 -4.21332,-0.801719 -7.26165,-1.096058 l -0.14087,-0.0136 V 80.374648 80.24789 l 0.0746,0.0066 c 1.00962,0.08973 3.44466,0.314267 3.67954,0.339294 4.11516,0.438474 7.0798,1.305998 9.13953,2.674443 0.85168,0.565841 1.58208,1.248994 2.15327,2.013975 0.99402,1.331277 1.60127,3.005929 1.8675,5.150097 0.0697,0.561522 0.0958,1.141217 0.10734,2.386486 0.0106,1.141076 -0.0151,1.830425 -0.10125,2.723465 -0.14145,1.465259 -0.42853,2.738603 -0.84193,3.734408 -0.10061,0.242344 -0.21434,0.487391 -0.22878,0.492932 -0.007,0.0026 -0.11703,0.0034 -0.24508,0.0017 l -0.23282,-0.003 0.0795,-0.171252 c 0.37739,-0.813404 0.61205,-1.758185 0.75055,-3.021777 0.10833,-0.988275 0.13098,-1.686572 0.13225,-4.076912 8.3e-4,-1.548172 -0.0122,-2.303811 -0.0402,-2.331243 -0.008,-0.0075 -0.009,0.04393 -0.004,0.160204 0.0215,0.540905 0.0312,1.597713 0.0259,2.817379 -0.005,1.251314 -0.0104,1.51205 -0.041,2.148941 -0.0932,1.941356 -0.35769,3.286041 -0.8465,4.303436 l -0.0849,0.176749 h -7.67149 -7.6715 z m 16.28669,-0.193281 c -0.008,-0.02126 -0.0109,-0.009 -0.0115,0.05771 -9.3e-4,0.111727 0.0148,0.150734 0.0191,0.04725 0.002,-0.04287 -0.002,-0.0901 -0.008,-0.104961 z m -0.0173,-0.351031 c -0.0344,-0.475874 -0.0714,-0.830555 -0.0866,-0.830555 -0.006,0 -0.008,0.02032 -0.004,0.05023 0.0292,0.212982 0.0845,0.859974 0.0845,0.989258 0,0.0598 0.0127,0.09736 0.0203,0.05999 0.002,-0.01013 -0.004,-0.13114 -0.0144,-0.268918 z m -0.11109,-1.05838 c -0.13169,-0.849868 -0.3638,-1.431701 -0.88034,-2.206698 -0.17418,-0.261332 -0.3202,-0.460195 -0.33791,-0.460195 -0.0113,0 -0.0129,0.0041 -0.005,0.01381 0.0514,0.06549 0.31405,0.441342 0.39506,0.565339 0.35286,0.540156 0.56773,1.023202 0.70812,1.591889 0.039,0.158013 0.10672,0.510539 0.12096,0.629767 0.004,0.03646 0.0109,0.07126 0.0146,0.07734 0.0163,0.02717 0.0117,-0.03833 -0.0151,-0.211253 z"
     id="path845"
     transform="scale(0.75)" />
  <path
     style="fill:#ff0000;stroke-width:0.0110485"
     d="m 106.93333,90.144389 v -9.629483 l 0.0469,0.0063 c 0.0584,0.0078 0.22428,0.02535 0.84246,0.08925 5.68394,0.587485 9.20324,1.490565 11.57334,2.969811 0.92653,0.57827 1.6528,1.23693 2.30818,2.093293 0.12677,0.165653 0.15565,0.196903 0.15565,0.168445 0,-0.01309 -0.14162,-0.200489 -0.29098,-0.385034 -0.36554,-0.451649 -0.83189,-0.91662 -1.28344,-1.279645 -1.38043,-1.109795 -3.33936,-1.954729 -5.94964,-2.566215 -1.98946,-0.466055 -4.21332,-0.801719 -7.26165,-1.096058 l -0.14087,-0.0136 V 80.374648 80.24789 l 0.0746,0.0066 c 1.00962,0.08973 3.44466,0.314267 3.67954,0.339294 4.11516,0.438474 7.0798,1.305998 9.13953,2.674443 0.85168,0.565841 1.58208,1.248994 2.15327,2.013975 0.99402,1.331277 1.60127,3.005929 1.8675,5.150097 0.0697,0.561522 0.0958,1.141217 0.10734,2.386486 0.0106,1.141076 -0.0151,1.830425 -0.10125,2.723465 -0.14145,1.465259 -0.42853,2.738603 -0.84193,3.734408 -0.10061,0.242344 -0.21434,0.487391 -0.22878,0.492932 -0.007,0.0026 -0.11703,0.0034 -0.24508,0.0017 l -0.23282,-0.003 0.0795,-0.171252 c 0.37739,-0.813404 0.61205,-1.758185 0.75055,-3.021777 0.10833,-0.988275 0.13098,-1.686572 0.13225,-4.076912 8.3e-4,-1.548172 -0.0122,-2.303811 -0.0402,-2.331243 -0.008,-0.0075 -0.009,0.04393 -0.004,0.160204 0.0215,0.540905 0.0312,1.597713 0.0259,2.817379 -0.005,1.251314 -0.0104,1.51205 -0.041,2.148941 -0.0932,1.941356 -0.35769,3.286041 -0.8465,4.303436 l -0.0849,0.176749 h -7.67149 -7.6715 z m 16.28669,-0.193281 c -0.008,-0.02126 -0.0109,-0.009 -0.0115,0.05771 -9.3e-4,0.111727 0.0148,0.150734 0.0191,0.04725 0.002,-0.04287 -0.002,-0.0901 -0.008,-0.104961 z m -0.0173,-0.351031 c -0.0344,-0.475874 -0.0714,-0.830555 -0.0866,-0.830555 -0.006,0 -0.008,0.02032 -0.004,0.05023 0.0292,0.212982 0.0845,0.859974 0.0845,0.989258 0,0.0598 0.0127,0.09736 0.0203,0.05999 0.002,-0.01013 -0.004,-0.13114 -0.0144,-0.268918 z m -0.11109,-1.05838 c -0.13169,-0.849868 -0.3638,-1.431701 -0.88034,-2.206698 -0.17418,-0.261332 -0.3202,-0.460195 -0.33791,-0.460195 -0.0113,0 -0.0129,0.0041 -0.005,0.01381 0.0514,0.06549 0.31405,0.441342 0.39506,0.565339 0.35286,0.540156 0.56773,1.023202 0.70812,1.591889 0.039,0.158013 0.10672,0.510539 0.12096,0.629767 0.004,0.03646 0.0109,0.07126 0.0146,0.07734 0.0163,0.02717 0.0117,-0.03833 -0.0151,-0.211253 z"
     id="path847"
     transform="scale(0.75)" />
  <path
     style="fill:#ff0000;stroke-width:0.0110485"
     d="m 106.93333,90.144389 v -9.629483 l 0.0469,0.0063 c 0.0584,0.0078 0.22428,0.02535 0.84246,0.08925 5.68394,0.587485 9.20324,1.490565 11.57334,2.969811 0.92653,0.57827 1.6528,1.23693 2.30818,2.093293 0.12677,0.165653 0.15565,0.196903 0.15565,0.168445 0,-0.01309 -0.14162,-0.200489 -0.29098,-0.385034 -0.36554,-0.451649 -0.83189,-0.91662 -1.28344,-1.279645 -1.38043,-1.109795 -3.33936,-1.954729 -5.94964,-2.566215 -1.98946,-0.466055 -4.21332,-0.801719 -7.26165,-1.096058 l -0.14087,-0.0136 V 80.374648 80.24789 l 0.0746,0.0066 c 1.00962,0.08973 3.44466,0.314267 3.67954,0.339294 4.11516,0.438474 7.0798,1.305998 9.13953,2.674443 0.85168,0.565841 1.58208,1.248994 2.15327,2.013975 0.99402,1.331277 1.60127,3.005929 1.8675,5.150097 0.0697,0.561522 0.0958,1.141217 0.10734,2.386486 0.0106,1.141076 -0.0151,1.830425 -0.10125,2.723465 -0.14145,1.465259 -0.42853,2.738603 -0.84193,3.734408 -0.10061,0.242344 -0.21434,0.487391 -0.22878,0.492932 -0.007,0.0026 -0.11703,0.0034 -0.24508,0.0017 l -0.23282,-0.003 0.0795,-0.171252 c 0.37739,-0.813404 0.61205,-1.758185 0.75055,-3.021777 0.10833,-0.988275 0.13098,-1.686572 0.13225,-4.076912 8.3e-4,-1.548172 -0.0122,-2.303811 -0.0402,-2.331243 -0.008,-0.0075 -0.009,0.04393 -0.004,0.160204 0.0215,0.540905 0.0312,1.597713 0.0259,2.817379 -0.005,1.251314 -0.0104,1.51205 -0.041,2.148941 -0.0932,1.941356 -0.35769,3.286041 -0.8465,4.303436 l -0.0849,0.176749 h -7.67149 -7.6715 z m 16.28669,-0.193281 c -0.008,-0.02126 -0.0109,-0.009 -0.0115,0.05771 -9.3e-4,0.111727 0.0148,0.150734 0.0191,0.04725 0.002,-0.04287 -0.002,-0.0901 -0.008,-0.104961 z m -0.0173,-0.351031 c -0.0344,-0.475874 -0.0714,-0.830555 -0.0866,-0.830555 -0.006,0 -0.008,0.02032 -0.004,0.05023 0.0292,0.212982 0.0845,0.859974 0.0845,0.989258 0,0.0598 0.0127,0.09736 0.0203,0.05999 0.002,-0.01013 -0.004,-0.13114 -0.0144,-0.268918 z m -0.11109,-1.05838 c -0.13169,-0.849868 -0.3638,-1.431701 -0.88034,-2.206698 -0.17418,-0.261332 -0.3202,-0.460195 -0.33791,-0.460195 -0.0113,0 -0.0129,0.0041 -0.005,0.01381 0.0514,0.06549 0.31405,0.441342 0.39506,0.565339 0.35286,0.540156 0.56773,1.023202 0.70812,1.591889 0.039,0.158013 0.10672,0.510539 0.12096,0.629767 0.004,0.03646 0.0109,0.07126 0.0146,0.07734 0.0163,0.02717 0.0117,-0.03833 -0.0151,-0.211253 z"
     id="path849"
     transform="scale(0.75)" />
  <path
     style="fill:#ff0000;stroke-width:0.0110485"
     d="m 106.93333,90.144389 v -9.629483 l 0.0469,0.0063 c 0.0584,0.0078 0.22428,0.02535 0.84246,0.08925 5.68394,0.587485 9.20324,1.490565 11.57334,2.969811 0.92653,0.57827 1.6528,1.23693 2.30818,2.093293 0.12677,0.165653 0.15565,0.196903 0.15565,0.168445 0,-0.01309 -0.14162,-0.200489 -0.29098,-0.385034 -0.36554,-0.451649 -0.83189,-0.91662 -1.28344,-1.279645 -1.38043,-1.109795 -3.33936,-1.954729 -5.94964,-2.566215 -1.98946,-0.466055 -4.21332,-0.801719 -7.26165,-1.096058 l -0.14087,-0.0136 V 80.374648 80.24789 l 0.0746,0.0066 c 1.00962,0.08973 3.44466,0.314267 3.67954,0.339294 4.11516,0.438474 7.0798,1.305998 9.13953,2.674443 0.85168,0.565841 1.58208,1.248994 2.15327,2.013975 0.99402,1.331277 1.60127,3.005929 1.8675,5.150097 0.0697,0.561522 0.0958,1.141217 0.10734,2.386486 0.0106,1.141076 -0.0151,1.830425 -0.10125,2.723465 -0.14145,1.465259 -0.42853,2.738603 -0.84193,3.734408 -0.10061,0.242344 -0.21434,0.487391 -0.22878,0.492932 -0.007,0.0026 -0.11703,0.0034 -0.24508,0.0017 l -0.23282,-0.003 0.0795,-0.171252 c 0.37739,-0.813404 0.61205,-1.758185 0.75055,-3.021777 0.10833,-0.988275 0.13098,-1.686572 0.13225,-4.076912 8.3e-4,-1.548172 -0.0122,-2.303811 -0.0402,-2.331243 -0.008,-0.0075 -0.009,0.04393 -0.004,0.160204 0.0215,0.540905 0.0312,1.597713 0.0259,2.817379 -0.005,1.251314 -0.0104,1.51205 -0.041,2.148941 -0.0932,1.941356 -0.35769,3.286041 -0.8465,4.303436 l -0.0849,0.176749 h -7.67149 -7.6715 z m 16.28669,-0.193281 c -0.008,-0.02126 -0.0109,-0.009 -0.0115,0.05771 -9.3e-4,0.111727 0.0148,0.150734 0.0191,0.04725 0.002,-0.04287 -0.002,-0.0901 -0.008,-0.104961 z m -0.0173,-0.351031 c -0.0344,-0.475874 -0.0714,-0.830555 -0.0866,-0.830555 -0.006,0 -0.008,0.02032 -0.004,0.05023 0.0292,0.212982 0.0845,0.859974 0.0845,0.989258 0,0.0598 0.0127,0.09736 0.0203,0.05999 0.002,-0.01013 -0.004,-0.13114 -0.0144,-0.268918 z m -0.11109,-1.05838 c -0.13169,-0.849868 -0.3638,-1.431701 -0.88034,-2.206698 -0.17418,-0.261332 -0.3202,-0.460195 -0.33791,-0.460195 -0.0113,0 -0.0129,0.0041 -0.005,0.01381 0.0514,0.06549 0.31405,0.441342 0.39506,0.565339 0.35286,0.540156 0.56773,1.023202 0.70812,1.591889 0.039,0.158013 0.10672,0.510539 0.12096,0.629767 0.004,0.03646 0.0109,0.07126 0.0146,0.07734 0.0163,0.02717 0.0117,-0.03833 -0.0151,-0.211253 z"
     id="path851"
     transform="scale(0.75)" />
  <path
     style="fill:#ff0000;stroke-width:0.0110485"
     d="m 106.93333,90.144389 v -9.629483 l 0.0469,0.0063 c 0.0584,0.0078 0.22428,0.02535 0.84246,0.08925 5.68394,0.587485 9.20324,1.490565 11.57334,2.969811 0.92653,0.57827 1.6528,1.23693 2.30818,2.093293 0.12677,0.165653 0.15565,0.196903 0.15565,0.168445 0,-0.01309 -0.14162,-0.200489 -0.29098,-0.385034 -0.36554,-0.451649 -0.83189,-0.91662 -1.28344,-1.279645 -1.38043,-1.109795 -3.33936,-1.954729 -5.94964,-2.566215 -1.98946,-0.466055 -4.21332,-0.801719 -7.26165,-1.096058 l -0.14087,-0.0136 V 80.374648 80.24789 l 0.0746,0.0066 c 1.00962,0.08973 3.44466,0.314267 3.67954,0.339294 4.11516,0.438474 7.0798,1.305998 9.13953,2.674443 0.85168,0.565841 1.58208,1.248994 2.15327,2.013975 0.99402,1.331277 1.60127,3.005929 1.8675,5.150097 0.0697,0.561522 0.0958,1.141217 0.10734,2.386486 0.0106,1.141076 -0.0151,1.830425 -0.10125,2.723465 -0.14145,1.465259 -0.42853,2.738603 -0.84193,3.734408 -0.10061,0.242344 -0.21434,0.487391 -0.22878,0.492932 -0.007,0.0026 -0.11703,0.0034 -0.24508,0.0017 l -0.23282,-0.003 0.0795,-0.171252 c 0.37739,-0.813404 0.61205,-1.758185 0.75055,-3.021777 0.10833,-0.988275 0.13098,-1.686572 0.13225,-4.076912 8.3e-4,-1.548172 -0.0122,-2.303811 -0.0402,-2.331243 -0.008,-0.0075 -0.009,0.04393 -0.004,0.160204 0.0215,0.540905 0.0312,1.597713 0.0259,2.817379 -0.005,1.251314 -0.0104,1.51205 -0.041,2.148941 -0.0932,1.941356 -0.35769,3.286041 -0.8465,4.303436 l -0.0849,0.176749 h -7.67149 -7.6715 z m 16.28669,-0.193281 c -0.008,-0.02126 -0.0109,-0.009 -0.0115,0.05771 -9.3e-4,0.111727 0.0148,0.150734 0.0191,0.04725 0.002,-0.04287 -0.002,-0.0901 -0.008,-0.104961 z m -0.0173,-0.351031 c -0.0344,-0.475874 -0.0714,-0.830555 -0.0866,-0.830555 -0.006,0 -0.008,0.02032 -0.004,0.05023 0.0292,0.212982 0.0845,0.859974 0.0845,0.989258 0,0.0598 0.0127,0.09736 0.0203,0.05999 0.002,-0.01013 -0.004,-0.13114 -0.0144,-0.268918 z m -0.11109,-1.05838 c -0.13169,-0.849868 -0.3638,-1.431701 -0.88034,-2.206698 -0.17418,-0.261332 -0.3202,-0.460195 -0.33791,-0.460195 -0.0113,0 -0.0129,0.0041 -0.005,0.01381 0.0514,0.06549 0.31405,0.441342 0.39506,0.565339 0.35286,0.540156 0.56773,1.023202 0.70812,1.591889 0.039,0.158013 0.10672,0.510539 0.12096,0.629767 0.004,0.03646 0.0109,0.07126 0.0146,0.07734 0.0163,0.02717 0.0117,-0.03833 -0.0151,-0.211253 z"
     id="path853"
     transform="scale(0.75)" />
  <path
     style="fill:#ff0000;stroke-width:0.0110485"
     d="m 106.93333,90.144389 v -9.629483 l 0.0469,0.0063 c 0.0584,0.0078 0.22428,0.02535 0.84246,0.08925 5.68394,0.587485 9.20324,1.490565 11.57334,2.969811 0.92653,0.57827 1.6528,1.23693 2.30818,2.093293 0.12677,0.165653 0.15565,0.196903 0.15565,0.168445 0,-0.01309 -0.14162,-0.200489 -0.29098,-0.385034 -0.36554,-0.451649 -0.83189,-0.91662 -1.28344,-1.279645 -1.38043,-1.109795 -3.33936,-1.954729 -5.94964,-2.566215 -1.98946,-0.466055 -4.21332,-0.801719 -7.26165,-1.096058 l -0.14087,-0.0136 V 80.374648 80.24789 l 0.0746,0.0066 c 1.00962,0.08973 3.44466,0.314267 3.67954,0.339294 4.11516,0.438474 7.0798,1.305998 9.13953,2.674443 0.85168,0.565841 1.58208,1.248994 2.15327,2.013975 0.99402,1.331277 1.60127,3.005929 1.8675,5.150097 0.0697,0.561522 0.0958,1.141217 0.10734,2.386486 0.0106,1.141076 -0.0151,1.830425 -0.10125,2.723465 -0.14145,1.465259 -0.42853,2.738603 -0.84193,3.734408 -0.10061,0.242344 -0.21434,0.487391 -0.22878,0.492932 -0.007,0.0026 -0.11703,0.0034 -0.24508,0.0017 l -0.23282,-0.003 0.0795,-0.171252 c 0.37739,-0.813404 0.61205,-1.758185 0.75055,-3.021777 0.10833,-0.988275 0.13098,-1.686572 0.13225,-4.076912 8.3e-4,-1.548172 -0.0122,-2.303811 -0.0402,-2.331243 -0.008,-0.0075 -0.009,0.04393 -0.004,0.160204 0.0215,0.540905 0.0312,1.597713 0.0259,2.817379 -0.005,1.251314 -0.0104,1.51205 -0.041,2.148941 -0.0932,1.941356 -0.35769,3.286041 -0.8465,4.303436 l -0.0849,0.176749 h -7.67149 -7.6715 z m 16.28669,-0.193281 c -0.008,-0.02126 -0.0109,-0.009 -0.0115,0.05771 -9.3e-4,0.111727 0.0148,0.150734 0.0191,0.04725 0.002,-0.04287 -0.002,-0.0901 -0.008,-0.104961 z m -0.0173,-0.351031 c -0.0344,-0.475874 -0.0714,-0.830555 -0.0866,-0.830555 -0.006,0 -0.008,0.02032 -0.004,0.05023 0.0292,0.212982 0.0845,0.859974 0.0845,0.989258 0,0.0598 0.0127,0.09736 0.0203,0.05999 0.002,-0.01013 -0.004,-0.13114 -0.0144,-0.268918 z m -0.11109,-1.05838 c -0.13169,-0.849868 -0.3638,-1.431701 -0.88034,-2.206698 -0.17418,-0.261332 -0.3202,-0.460195 -0.33791,-0.460195 -0.0113,0 -0.0129,0.0041 -0.005,0.01381 0.0514,0.06549 0.31405,0.441342 0.39506,0.565339 0.35286,0.540156 0.56773,1.023202 0.70812,1.591889 0.039,0.158013 0.10672,0.510539 0.12096,0.629767 0.004,0.03646 0.0109,0.07126 0.0146,0.07734 0.0163,0.02717 0.0117,-0.03833 -0.0151,-0.211253 z"
     id="path855"
     transform="scale(0.75)" />
  <path
     style="fill:#ff0000;stroke-width:0.0078125"
     d="m 108.98047,89.609375 v -7.589844 h 3.40772 3.40771 l 0.20361,0.06324 c 2.16293,0.671806 3.74755,1.536541 4.9017,2.674877 0.327,0.322527 0.52385,0.547258 0.83843,0.957194 0.0748,0.09751 0.11583,0.142654 0.11583,0.127527 0,-0.02462 -0.28941,-0.393962 -0.47744,-0.60931 -0.52458,-0.600783 -1.08256,-1.088157 -1.76084,-1.538047 -0.38526,-0.255531 -0.72051,-0.447288 -1.1875,-0.679225 -0.72472,-0.35994 -1.49934,-0.665022 -2.39844,-0.944614 l -0.16406,-0.05102 0.74012,-3.12e-4 0.74012,-3.13e-4 0.15832,0.06144 c 1.25059,0.485321 2.33927,1.112248 3.18956,1.836757 0.27644,0.235543 0.66442,0.615156 0.87457,0.855712 0.48859,0.559269 0.8589,1.112075 1.19058,1.777344 0.54863,1.100412 0.9072,2.385088 1.09463,3.921875 0.0531,0.435065 0.0769,0.873607 0.0948,1.744118 0.0102,0.496975 0.005,1.867545 -0.008,2.130882 -0.0515,1.037978 -0.16246,2.034299 -0.31041,2.78711 l -0.0127,0.06445 h -0.28462 c -0.26746,0 -0.28436,-8.25e-4 -0.28039,-0.01367 0.007,-0.02221 0.0495,-0.349066 0.0747,-0.572266 0.0589,-0.521499 0.0901,-0.95549 0.10946,-1.519531 0.0414,-1.205973 0.0354,-4.729327 -0.008,-4.902344 -0.007,-0.02868 -0.007,0.01129 0.0101,0.640625 0.0134,0.504611 0.0135,3.279656 1.5e-4,3.703125 -0.0282,0.895238 -0.071,1.561347 -0.13898,2.164063 -0.021,0.18645 -0.0554,0.453065 -0.0621,0.482422 l -0.004,0.01758 h -7.0272 -7.02719 z m 14.24195,0.419922 c -1.6e-4,-0.05469 -0.003,-0.07972 -0.007,-0.07175 -0.006,0.01094 -0.002,0.155731 0.005,0.155731 0.002,0 0.003,-0.03779 0.003,-0.08398 z m -0.0147,-0.322105 c -0.0127,-0.193074 -0.0412,-0.54267 -0.0446,-0.546385 -0.01,-0.01071 -0.009,0.02215 0.005,0.17954 0.008,0.0964 0.019,0.249106 0.024,0.33934 0.005,0.09023 0.0111,0.172852 0.0137,0.183594 0.01,0.04105 0.011,-0.02547 0.002,-0.156089 z m -0.0632,-0.749661 c -0.0161,-0.142896 -0.0291,-0.216311 -0.0306,-0.173267 -8.2e-4,0.02273 0.0292,0.306514 0.0365,0.344642 l 0.005,0.02734 0.003,-0.02569 c 0.002,-0.01413 -0.005,-0.09199 -0.0138,-0.173026 z m -0.051,-0.388004 c -0.13523,-0.872688 -0.3602,-1.442961 -0.87501,-2.217965 -0.19676,-0.296218 -0.32555,-0.472565 -0.34514,-0.472627 -0.005,-1.5e-5 0.0355,0.06237 0.0903,0.138643 0.44551,0.620205 0.66811,1.012826 0.84713,1.494141 0.12769,0.343334 0.19833,0.635677 0.29163,1.207031 0.006,0.03766 0.006,0.03805 0.009,0.01093 0.001,-0.01547 -0.007,-0.08754 -0.0179,-0.160156 z"
     id="path1299"
     transform="scale(0.75)" />
  <path
     style="fill:#ff0000;stroke-width:0.0078125"
     d="m 108.98047,89.609375 v -7.589844 h 3.40772 3.40771 l 0.20361,0.06324 c 2.16293,0.671806 3.74755,1.536541 4.9017,2.674877 0.327,0.322527 0.52385,0.547258 0.83843,0.957194 0.0748,0.09751 0.11583,0.142654 0.11583,0.127527 0,-0.02462 -0.28941,-0.393962 -0.47744,-0.60931 -0.52458,-0.600783 -1.08256,-1.088157 -1.76084,-1.538047 -0.38526,-0.255531 -0.72051,-0.447288 -1.1875,-0.679225 -0.72472,-0.35994 -1.49934,-0.665022 -2.39844,-0.944614 l -0.16406,-0.05102 0.74012,-3.12e-4 0.74012,-3.13e-4 0.15832,0.06144 c 1.25059,0.485321 2.33927,1.112248 3.18956,1.836757 0.27644,0.235543 0.66442,0.615156 0.87457,0.855712 0.48859,0.559269 0.8589,1.112075 1.19058,1.777344 0.54863,1.100412 0.9072,2.385088 1.09463,3.921875 0.0531,0.435065 0.0769,0.873607 0.0948,1.744118 0.0102,0.496975 0.005,1.867545 -0.008,2.130882 -0.0515,1.037978 -0.16246,2.034299 -0.31041,2.78711 l -0.0127,0.06445 h -0.28462 c -0.26746,0 -0.28436,-8.25e-4 -0.28039,-0.01367 0.007,-0.02221 0.0495,-0.349066 0.0747,-0.572266 0.0589,-0.521499 0.0901,-0.95549 0.10946,-1.519531 0.0414,-1.205973 0.0354,-4.729327 -0.008,-4.902344 -0.007,-0.02868 -0.007,0.01129 0.0101,0.640625 0.0134,0.504611 0.0135,3.279656 1.5e-4,3.703125 -0.0282,0.895238 -0.071,1.561347 -0.13898,2.164063 -0.021,0.18645 -0.0554,0.453065 -0.0621,0.482422 l -0.004,0.01758 h -7.0272 -7.02719 z m 14.24195,0.419922 c -1.6e-4,-0.05469 -0.003,-0.07972 -0.007,-0.07175 -0.006,0.01094 -0.002,0.155731 0.005,0.155731 0.002,0 0.003,-0.03779 0.003,-0.08398 z m -0.0147,-0.322105 c -0.0127,-0.193074 -0.0412,-0.54267 -0.0446,-0.546385 -0.01,-0.01071 -0.009,0.02215 0.005,0.17954 0.008,0.0964 0.019,0.249106 0.024,0.33934 0.005,0.09023 0.0111,0.172852 0.0137,0.183594 0.01,0.04105 0.011,-0.02547 0.002,-0.156089 z m -0.0632,-0.749661 c -0.0161,-0.142896 -0.0291,-0.216311 -0.0306,-0.173267 -8.2e-4,0.02273 0.0292,0.306514 0.0365,0.344642 l 0.005,0.02734 0.003,-0.02569 c 0.002,-0.01413 -0.005,-0.09199 -0.0138,-0.173026 z m -0.051,-0.388004 c -0.13523,-0.872688 -0.3602,-1.442961 -0.87501,-2.217965 -0.19676,-0.296218 -0.32555,-0.472565 -0.34514,-0.472627 -0.005,-1.5e-5 0.0355,0.06237 0.0903,0.138643 0.44551,0.620205 0.66811,1.012826 0.84713,1.494141 0.12769,0.343334 0.19833,0.635677 0.29163,1.207031 0.006,0.03766 0.006,0.03805 0.009,0.01093 0.001,-0.01547 -0.007,-0.08754 -0.0179,-0.160156 z"
     id="path1338"
     transform="scale(0.75)" />
  <path
     style="fill:#ff0000;stroke-width:0.0078125"
     d="m 108.98047,89.609379 v -7.589848 h 3.4091 3.40911 l 0.21394,0.06664 c 1.66497,0.51862 2.99365,1.156293 4.03425,1.936155 0.35306,0.264591 0.57769,0.460351 0.91051,0.793498 0.30759,0.307884 0.44621,0.465767 0.73318,0.83505 0.12953,0.166678 0.16491,0.207578 0.16491,0.190653 0,-0.0092 -0.10736,-0.15531 -0.20221,-0.275122 -0.6645,-0.839405 -1.41401,-1.499507 -2.35639,-2.075304 -0.84912,-0.518816 -1.92738,-0.99434 -3.09375,-1.364377 -0.11601,-0.03681 -0.23906,-0.07584 -0.27343,-0.08675 l -0.0625,-0.01983 0.75,0.0016 0.75,0.0016 0.20703,0.08324 c 1.36574,0.549117 2.38406,1.154733 3.28906,1.956063 0.15987,0.141557 0.57671,0.56074 0.71449,0.718509 1.16617,1.33537 1.87326,2.994599 2.20736,5.179687 0.11026,0.721115 0.14275,1.162254 0.16485,2.238282 0.0102,0.496 0.005,1.904086 -0.008,2.160156 -0.0514,1.016327 -0.15463,1.954497 -0.2986,2.712891 l -0.0241,0.126953 h -0.28445 -0.28444 l 0.004,-0.01758 c 0.0159,-0.07047 0.0801,-0.606428 0.10923,-0.91211 0.0839,-0.881094 0.1016,-1.633163 0.0959,-4.066406 -0.002,-1.051103 -0.007,-1.637474 -0.0131,-1.773438 -0.0112,-0.242021 -0.0256,-0.320195 -0.0194,-0.105468 0.0166,0.577617 0.0201,0.870989 0.0242,2.039062 0.003,0.877867 0.002,1.476467 -0.004,1.796875 -0.0224,1.19466 -0.0816,2.097159 -0.19054,2.90625 l -0.0174,0.128906 -7.02928,0.002 -7.02927,0.002 z m 14.24014,0.385023 c -0.002,-0.0227 -0.003,-0.0061 -0.003,0.03685 0,0.04297 0.001,0.06154 0.003,0.04128 0.002,-0.02026 0.002,-0.05542 0,-0.07813 z m -0.0128,-0.278964 c -0.0186,-0.282803 -0.0419,-0.543968 -0.0493,-0.551376 -0.005,-0.0052 -0.006,0.0054 -0.003,0.03125 0.007,0.05386 0.034,0.417683 0.0396,0.527344 0.006,0.107894 0.0133,0.169006 0.018,0.14122 0.002,-0.01042 -6.6e-4,-0.07721 -0.005,-0.148438 z m -0.0632,-0.749826 c -0.0149,-0.131783 -0.0287,-0.213013 -0.0307,-0.180456 -0.001,0.01584 0.0298,0.301594 0.0362,0.335938 0.004,0.0217 0.006,0.02371 0.008,0.0097 0.002,-0.0097 -0.004,-0.08403 -0.0136,-0.165214 z m -0.0508,-0.38819 c -0.10229,-0.705879 -0.30119,-1.278602 -0.64687,-1.862578 -0.16818,-0.284124 -0.49388,-0.763704 -0.55711,-0.820313 l -0.0218,-0.01953 0.0146,0.02344 c 0.008,0.01289 0.0608,0.08848 0.11737,0.167969 0.43803,0.615865 0.66026,1.017947 0.83655,1.51357 0.11395,0.32037 0.17957,0.603067 0.27006,1.163436 5.9e-4,0.0036 0.003,-7.6e-4 0.004,-0.0097 0.002,-0.009 -0.006,-0.07929 -0.017,-0.15625 z"
     id="path1340"
     transform="scale(0.75)" />
  <path
     style="fill:#ff0000;stroke-width:0.125"
     d="m 260.1875,276.50411 c 0,-0.0321 0.36316,-0.82267 0.80703,-1.75679 l 0.80703,-1.69841 -1.56366,-6.71196 c -2.5458,-10.92779 -3.30387,-14.32872 -4.43563,-19.89945 -3.46049,-17.03324 -4.4425,-27.99529 -3.22499,-35.99992 0.86485,-5.68596 2.66659,-9.36121 5.18246,-10.57129 1.49033,-0.71682 3.07909,-1.06802 5.17776,-1.14456 4.95527,-0.18073 9.0913,1.40265 10.99497,4.20917 1.57934,2.32836 2.87761,6.40372 3.25827,10.22788 0.26756,2.68798 -0.2933,4.41745 -1.3075,4.03185 -0.67562,-0.25687 -1.00438,-1.14161 -1.18623,-3.19231 -0.20453,-2.30655 -1.03819,-4.63227 -2.64712,-7.38492 -1.54796,-2.64835 -3.63093,-5.05038 -4.92026,-5.67394 -1.12209,-0.54268 -2.33791,-0.29104 -3.13477,0.64881 -0.54544,0.6433 -1.25313,2.28585 -1.60459,3.72423 -1.17889,4.8247 -1.23318,14.21533 -0.13548,23.4375 1.19791,10.06413 3.59613,22.03789 4.95091,24.71875 0.29571,0.58516 0.64808,0.61823 0.92299,0.0866 0.64775,-1.25261 1.98542,-5.36179 4.79928,-14.74287 1.30998,-4.36732 1.61824,-5.27759 1.56625,-4.625 -0.0356,0.44687 -0.26044,3.65312 -0.49964,7.125 -0.72969,10.59099 -1.18501,14.90394 -2.05205,19.4375 -0.48163,2.51835 -0.54992,3.39358 -0.38309,4.90967 0.2405,2.18562 1.38795,5.75712 3.17154,9.87158 l 0.44704,1.03125 h -7.49526 c -4.12239,0 -7.49526,-0.0263 -7.49526,-0.0584 z"
     id="path1379"
     transform="scale(0.75)" />
  <path
     style="fill:#ff0000;stroke-width:0.353553"
     d="m 181.54967,402.4702 c -4.26371,-0.70434 -8.57399,-3.65842 -9.05144,-6.20349 -0.71507,-3.81165 1.51485,-8.99976 6.35378,-14.7826 4.70085,-5.61785 11.15566,-11.00251 21.08243,-17.58719 6.17989,-4.09928 9.8995,-6.18457 9.8995,-5.54986 0,0.21144 -4.49455,4.94782 -9.98789,10.52529 -12.85004,13.04686 -18.37021,20.12064 -20.38643,26.12402 -1.95793,5.82981 -0.26012,6.295 6.54978,1.79461 6.43708,-4.25401 11.19759,-9.02225 18.01352,-18.04279 12.61391,-16.69387 26.74854,-41.76472 47.38403,-84.04591 l 8.80779,-18.04675 7.4249,0.004 7.4249,0.004 2.46936,4.85727 c 2.7945,5.4968 8.18183,13.76749 12.37988,19.00571 3.6744,4.58482 10.90973,12.02181 14.49569,14.89971 2.52488,2.02633 8.4777,6.12299 11.84404,8.15092 l 1.23743,0.74545 9.54595,-1.01522 c 24.86096,-2.644 39.60146,-1.88179 48.26003,2.49546 3.4875,1.76306 5.2966,4.02351 5.79783,7.24429 0.37531,2.41164 -0.14587,2.59022 -2.34112,0.80217 -5.73712,-4.67295 -17.19248,-6.49934 -35.34976,-5.63599 -13.72246,0.65247 -15.59798,1.38494 -10.07722,3.93554 4.64897,2.14783 14.10872,5.81266 19.09063,7.39597 7.29263,2.31768 11.16871,2.95563 17.75312,2.92197 6.33843,-0.0324 9.72272,0.21147 9.72272,0.70063 0,0.72306 -3.25268,3.51703 -5.2942,4.54758 -3.7358,1.88583 -8.4973,1.79362 -18.93032,-0.36658 -11.3374,-2.34745 -22.26781,-6.07925 -34.46535,-11.76695 l -6.89429,-3.21481 -3.35875,-0.13656 c -8.16287,-0.33188 -33.12999,4.90214 -62.04862,13.00766 -4.86136,1.36258 -10.40428,2.91593 -12.31759,3.4519 l -3.47875,0.97448 -4.96158,8.25889 c -8.40891,13.9972 -13.82446,21.79888 -20.58272,29.65163 -7.34225,8.5313 -14.68253,13.87207 -20.50775,14.92138 -2.3656,0.42612 -2.77845,0.42416 -5.50353,-0.026 z m 62.65245,-60.08894 c 16.72946,-5.8531 30.49943,-9.68892 50.13108,-13.96474 3.98631,-0.86823 7.53948,-1.66807 7.89592,-1.77742 0.51187,-0.15704 -1.16522,-1.99388 -7.97932,-8.73936 -12.26841,-12.14487 -16.98371,-17.81936 -23.91639,-28.78146 -1.99839,-3.15988 -3.8618,-5.74524 -4.14093,-5.74524 -0.719,0 -1.64466,1.66243 -3.67634,6.60253 -3.04037,7.39274 -6.79648,15.20813 -16.81994,34.99743 -5.33463,10.53213 -9.69931,19.32235 -9.69931,19.53383 0,0.66737 0.85677,0.44543 8.20523,-2.12557 z"
     id="path1418"
     transform="scale(0.75)" />
  <path
     style="fill:#ff0000;stroke-width:0.0625"
     d="m 260.67187,276.48497 c -0.21484,-0.0122 -0.39062,-0.0486 -0.39062,-0.0809 0,-0.0323 0.3496,-0.80114 0.77689,-1.7085 l 0.77689,-1.64973 -0.31221,-1.3354 c -4.71026,-20.14692 -6.16078,-26.93366 -7.57893,-35.46039 -0.37031,-2.22647 -1.10014,-7.26471 -1.10014,-7.59453 0,-0.0401 1.6437,-0.0617 4.6875,-0.0617 3.96489,0 4.6875,0.0134 4.6875,0.0871 0,0.15303 0.49583,3.86994 0.691,5.17999 1.49511,10.03559 3.58653,19.23142 4.54535,19.98563 0.21079,0.1658 0.33495,0.15396 0.53099,-0.0507 0.49299,-0.51457 1.81884,-4.50214 4.91952,-14.79577 0.94441,-3.13523 1.49585,-4.86938 1.53573,-4.82949 0.0234,0.0233 -0.6815,10.19978 -0.87996,12.70449 -0.2433,3.07073 -0.50953,5.93329 -0.72077,7.75 -0.26343,2.26559 -0.50002,3.76865 -1.16578,7.40625 -0.14597,0.79753 -0.16624,1.07121 -0.169,2.28125 -0.004,1.53706 0.0433,1.89437 0.47466,3.625 0.46711,1.874 1.35861,4.38136 2.60827,7.33578 0.27775,0.65664 0.50499,1.2083 0.50499,1.22593 0,0.0352 -13.79161,0.0216 -14.42188,-0.0142 z"
     id="path1457"
     transform="scale(0.75)" />
  <path
     style="fill:#ff0000;stroke-width:0.015625"
     d="m 252.78906,293.48781 v -1.59813 l 3.71447,-7.6107 3.71447,-7.6107 4.37538,-0.006 c 2.40645,-0.003 5.74568,-0.002 7.42051,0.002 l 3.04513,0.008 0.61582,1.21094 c 2.2115,4.34868 2.26483,4.45229 2.74285,5.32813 1.85828,3.40477 4.48782,7.6146 7.18246,11.49893 0.13828,0.19932 0.25141,0.36548 0.25141,0.36924 0,0.004 -2.60683,0.007 -5.79297,0.006 l -5.79297,-5.9e-4 -0.0607,-0.0892 c -0.0334,-0.0491 -0.24721,-0.36292 -0.4752,-0.6974 -0.9332,-1.3691 -2.00663,-3.00979 -3.30784,-5.05591 -0.63855,-1.00409 -0.9718,-1.51676 -1.49307,-2.29688 -1.41187,-2.113 -2.4745,-3.51258 -2.71221,-3.57224 -0.0641,-0.0161 -0.17256,0.009 -0.29057,0.0682 -0.0893,0.0445 -0.15064,0.0936 -0.28691,0.22955 -0.17314,0.17275 -0.26124,0.28294 -0.43812,0.54797 -0.46119,0.69104 -1.07652,1.94535 -1.92541,3.92485 -0.21298,0.49665 -0.34881,0.82141 -1.03788,2.4814 -0.5012,1.20742 -1.16125,2.7451 -1.72203,4.01172 l -0.19889,0.44922 h -3.76387 -3.76388 z"
     id="path1496"
     transform="scale(0.75)" />
  <path
     style="fill:#ff0000;stroke-width:0.015625"
     d="m 285.77654,294.93359 c -0.34871,-0.49334 -1.25429,-1.8243 -1.7978,-2.6423 -2.27562,-3.42481 -4.36391,-6.87022 -5.84969,-9.65121 -0.31753,-0.59434 -0.59935,-1.14387 -1.94089,-3.78463 l -1.12121,-2.20705 -7.43089,0.004 -7.43088,0.004 -3.70415,7.58986 -3.70416,7.58986 -0.004,-0.20933 -0.004,-0.20934 4.47727,-9.1741 4.47726,-9.17412 -0.96902,-4.16355 c -0.53296,-2.28996 -0.96902,-4.16754 -0.96902,-4.17241 0,-0.005 0.0118,-0.007 0.0263,-0.004 0.0204,0.004 0.041,0.0683 0.0918,0.2863 0.036,0.15469 0.47163,2.02508 0.96797,4.15643 l 0.90243,3.87518 -0.44158,0.9295 c -0.98793,2.07957 -1.18581,2.51281 -1.15615,2.53114 0.0641,0.0396 3.55025,0.0616 9.81812,0.0621 4.91625,3.5e-4 5.16941,-9.8e-4 5.16203,-0.027 -0.004,-0.015 -0.15706,-0.37188 -0.33954,-0.79297 -0.68247,-1.57489 -1.19492,-2.84999 -1.6672,-4.14844 -0.22009,-0.60511 -0.63232,-1.82715 -0.62634,-1.85677 0.002,-0.0119 0.0351,0.0722 0.0726,0.18706 0.41446,1.26764 1.28545,3.50995 2.0966,5.39756 2.6761,6.22755 6.39964,12.78779 10.81457,19.0534 0.1968,0.2793 0.38958,0.55176 0.4284,0.60547 l 0.0706,0.0977 h -0.0705 -0.0705 z"
     id="path1535"
     transform="scale(0.75)" />
  <path
     style="fill:#ffffff"
     d="M 113.5,312.12296 V 176.5 h 108 108 v -69 -69 h -108 -108 V 23 7.5 H 236.43837 359.37673 L 359.68837,47.973352 360,88.446704 362.27691,90.723352 364.55382,93 l 41.60993,0.282163 41.60993,0.282163 -0.46786,175.965524 c -0.25733,96.78104 -0.7899,176.28756 -1.18349,176.68115 -0.39359,0.3936 -75.39463,0.89997 -166.66898,1.12527 L 113.5,447.74592 Z m 78.88095,89.34534 c 9.38916,-4.26016 20.75762,-18.02688 39.61575,-47.97303 2.15528,-3.42252 2.67383,-3.6307 22.10518,-8.87464 20.4555,-5.52032 42.66127,-10.44414 52.44261,-11.62842 5.11954,-0.61985 6.30749,-0.33038 15.5,3.77698 23.61165,10.55005 45.71673,15.23269 53.328,11.29675 1.52525,-0.78874 3.38646,-2.17304 4.13604,-3.07622 2.14252,-2.58158 -0.34725,-3.45697 -9.88188,-3.47441 -6.85229,-0.0125 -10.21291,-0.63437 -18.5,-3.42317 C 345.55699,336.21782 338.75,333.6684 336,332.42678 l -5,-2.25751 6,-0.90055 c 7.9387,-1.19153 27.79442,-0.27853 33.69793,1.54949 2.58386,0.80009 5.95886,2.451 7.5,3.66868 l 2.80207,2.21397 0.33075,-3.33368 c 0.2657,-2.67795 -0.26474,-3.86576 -2.69669,-6.03871 -1.6651,-1.48776 -4.73894,-3.24802 -6.83076,-3.91168 -5.53911,-1.75737 -31.09092,-2.30668 -43.52174,-0.93564 l -10.71844,1.18218 -7.55356,-5.22177 c -13.06599,-9.03252 -25.12347,-23.83646 -33.28629,-40.86828 l -4.51793,-9.42671 1.19223,-14.57329 c 0.65573,-8.0153 1.41742,-16.03578 1.69265,-17.82328 1.03034,-6.69177 -1.20423,-2.90018 -4.00355,6.79316 -1.59519,5.52374 -3.27043,9.67308 -3.72276,9.22075 -1.64626,-1.64626 -4.86391,-24.66649 -4.86391,-34.79818 0,-10.93187 1.00387,-15.46573 3.42436,-15.46573 2.22678,0 6.30036,5.94206 7.72486,11.26811 1.574,5.885 3.85078,6.3297 3.85078,0.75213 0,-5.74007 -2.72735,-11.82789 -6.07429,-13.55866 -3.26838,-1.69014 -11.17377,-1.93437 -13.9811,-0.43194 -7.77081,4.15882 -7.63786,23.58527 0.40358,58.97036 l 3.2952,14.5 -15.24441,30.58925 c -21.76065,43.66464 -34.87234,65.92495 -47.82139,81.18857 -6.33582,7.4683 -17.88138,15.87817 -18.38639,13.39278 -0.80685,-3.97093 9.73632,-18.33268 23.23149,-31.64557 10.72902,-10.58412 10.14351,-12.06054 -1.74758,-4.40667 -21.36715,13.75329 -32.83048,28.11726 -28.65931,35.91116 1.5129,2.82687 7.12885,5.35597 11.9842,5.39699 1.925,0.0163 5.47143,-0.86493 7.88095,-1.95821 z"
     id="path1701"
     transform="scale(0.75)" />
  <path
     style="fill:#ffffff"
     d="M 113.5,312.12296 V 176.5 h 108 108 v -69 -69 h -108 -108 V 23 7.5 H 236.43837 359.37673 L 359.68837,47.973352 360,88.446704 362.27691,90.723352 364.55382,93 l 41.60754,0.282157 41.60754,0.282158 -0.45741,175.957475 c -0.25158,96.77661 -0.78308,176.28313 -1.1811,176.68115 -0.39803,0.39803 -75.40269,0.90803 -166.67704,1.13333 L 113.5,447.74592 Z m 78.93028,89.32326 c 9.15865,-4.15496 20.60783,-18.03479 39.55488,-47.95237 2.16346,-3.41612 2.71847,-3.6406 21.61765,-8.74353 22.69372,-6.12747 38.5286,-9.70525 50.09741,-11.31915 L 312,332.27332 l 10,4.49435 c 16.66326,7.48905 35.44791,12.73233 45.61504,12.73233 5.15285,0 9.52693,-1.65875 11.89349,-4.51028 2.14252,-2.58158 -0.34725,-3.45697 -9.88188,-3.47441 -6.85229,-0.0125 -10.21291,-0.63437 -18.5,-3.42317 C 345.55699,336.21782 338.75,333.6684 336,332.42678 l -5,-2.25751 6,-0.90055 c 7.9387,-1.19153 27.79442,-0.27853 33.69793,1.54949 2.58386,0.80009 5.95886,2.451 7.5,3.66868 l 2.80207,2.21397 0.33075,-3.33368 c 0.2657,-2.67795 -0.26474,-3.86576 -2.69669,-6.03871 -1.6651,-1.48776 -4.73894,-3.23689 -6.83076,-3.88695 -5.71231,-1.77517 -31.01246,-2.3432 -43.40648,-0.97454 l -10.8337,1.19635 -7.55356,-5.22177 c -13.06599,-9.03252 -25.12347,-23.83646 -33.28629,-40.86828 l -4.51793,-9.42671 1.19223,-14.57329 c 0.65573,-8.0153 1.42573,-16.08008 1.71111,-17.92171 0.97012,-6.26039 -1.23613,-2.29111 -4.08084,7.34188 -1.55916,5.27975 -3.20642,9.22797 -3.66059,8.7738 -1.64902,-1.64902 -4.86725,-24.65979 -4.86725,-34.80152 0,-10.93187 1.00387,-15.46573 3.42436,-15.46573 2.22678,0 6.30036,5.94206 7.72486,11.26811 1.60317,5.99407 3.85078,6.3137 3.85078,0.54761 0,-5.32775 -3.28603,-12.16938 -6.56181,-13.66193 -3.14262,-1.43187 -10.91643,-1.5034 -13.49358,-0.12415 -7.77837,4.16286 -7.63716,23.86935 0.42255,58.97036 l 3.32942,14.5 -15.27101,30.58925 c -21.85288,43.77335 -34.92795,65.95916 -47.84798,81.18857 -6.33582,7.4683 -17.88138,15.87817 -18.38639,13.39278 -0.80685,-3.97093 9.73632,-18.33268 23.23149,-31.64557 7.505,-7.40364 8.65881,-9.02503 6.42239,-9.02503 -2.41338,0 -20.69572,13.10003 -27.01463,19.35707 -10.11095,10.01194 -13.19676,18.07127 -8.57994,22.40855 4.87382,4.57872 11.65002,5.36974 18.67977,2.1806 z"
     id="path1740"
     transform="scale(0.75)" />
  <path
     style="fill:#ffffff"
     d="M 113.5,312.12296 V 176.5 h 108 108 v -69 -69 h -108 -108 V 23 7.5 H 236.43837 359.37673 L 359.68837,47.973352 360,88.446704 362.27691,90.723352 364.55382,93 l 41.60256,0.282146 41.60255,0.282145 -0.43634,175.941399 c -0.23998,96.76776 -0.76924,176.27429 -1.17611,176.68116 -0.40687,0.40688 -75.41878,0.92412 -166.69313,1.14942 L 113.5,447.74592 Z m 82.09693,87.31484 c 8.43264,-5.41121 22.08014,-22.29583 32.84271,-40.63284 2.32264,-3.95727 4.7489,-7.61267 5.39168,-8.1231 3.0352,-2.41025 54.53106,-15.15121 69.66868,-17.23722 l 8.5,-1.17132 10,4.49435 c 16.36221,7.35375 35.79739,12.73233 46.0075,12.73233 4.79801,0 9.18596,-1.72079 11.50103,-4.51028 2.12452,-2.55988 -0.33105,-3.45684 -9.51171,-3.47441 -4.82818,-0.009 -10.58059,-0.76256 -14.5,-1.89889 -7.42439,-2.15249 -22.07816,-7.85925 -23.34857,-9.09286 -1.28711,-1.24981 15.60712,-2.37598 25.3057,-1.68688 10.02662,0.71241 16.84544,2.5698 20.74398,5.65048 L 381,336.7014 l 0.32266,-2.66533 c 0.66334,-5.47957 -3.98517,-9.37479 -13.62188,-11.41446 -6.73994,-1.42655 -27.16091,-1.44378 -40.12119,-0.0338 l -9.99884,1.08776 -7.56238,-5.22787 c -13.06479,-9.03168 -25.13003,-23.83818 -33.27866,-40.83966 l -4.50149,-9.39202 1.19259,-15.60798 c 0.65593,-8.5844 1.40787,-16.65819 1.67097,-17.94178 0.26311,-1.28358 0.0919,-2.09496 -0.38036,-1.80306 -0.47231,0.29191 -2.13442,4.85054 -3.69358,10.1303 -1.55916,5.27975 -3.20642,9.22797 -3.66059,8.7738 -1.64902,-1.64907 -4.86725,-24.65984 -4.86725,-34.80157 0,-10.93187 1.00387,-15.46573 3.42436,-15.46573 2.11878,0 6.42669,6.04698 7.87732,11.05733 1.68169,5.80842 3.69832,6.35037 3.69832,0.99388 0,-9.29171 -5.05134,-15.05121 -13.2006,-15.05121 -2.71199,0 -5.79664,0.46334 -6.85479,1.02964 -7.71319,4.12798 -7.54991,23.93273 0.48778,59.163 L 261.19658,273 245.92557,303.58925 C 222.13185,351.25029 207.2994,375.73352 194.48489,388.5 187.06896,395.88813 179.5,400.69883 179.5,398.02415 c 0,-4.76948 8.24091,-15.9333 22.32427,-30.24229 4.99003,-5.06998 8.77877,-9.51215 8.41943,-9.8715 -1.62676,-1.62675 -20.99046,11.9253 -29.24185,20.46546 -8.99343,9.30816 -11.59666,16.80759 -7.25134,20.8898 5.53236,5.19738 13.9124,5.26343 21.84642,0.17218 z"
     id="path1779"
     transform="scale(0.75)" />
  <path
     style="fill:#ffffff"
     d="m 238.77174,340.75 c 0.70261,-1.5125 6.2501,-12.875 12.32775,-25.25 6.07766,-12.375 11.94995,-24.49041 13.04954,-26.92312 l 1.99926,-4.42312 5.50279,8.42312 c 5.65151,8.65076 13.98113,18.24628 24.23611,27.91941 l 5.82689,5.4963 -3.85704,0.84502 c -14.4356,3.16262 -37.69798,9.35556 -47.70981,12.70137 -6.51902,2.17856 -12.03281,3.96102 -12.25286,3.96102 -0.22006,0 0.17476,-1.2375 0.87737,-2.75 z"
     id="path1818"
     transform="scale(0.75)" />
  <path
     style="fill:#ffffff;stroke-width:0.125"
     d="M 92.0625,106 V 73.4375 h 8.98613 c 12.5028,0 17.2342,0.321939 21.05094,1.432373 4.8178,1.401676 8.89248,5.961001 10.45238,11.695579 0.90584,3.33008 0.9104,7.847675 0.0115,11.368383 -0.81713,3.200365 -2.35735,6.045435 -4.48076,8.276775 -3.60788,3.79127 -8.28724,5.90965 -15.02018,6.79977 -1.17952,0.15594 -2.9795,0.22186 -7.34375,0.26895 l -5.78125,0.0624 v 12.61039 12.61039 H 96 92.0625 Z m 14.1875,-0.69529 c 7.8898,-0.43352 10.7612,-0.89242 13.15957,-2.10311 3.17987,-1.6052 4.41623,-4.105075 4.61261,-9.3266 0.30845,-8.200921 -2.87036,-11.841993 -11.45968,-13.12614 -1.11654,-0.166927 -11.76456,-1.18482 -12.40625,-1.185969 -0.206941,-3.7e-4 -0.21875,0.705177 -0.21875,13.069678 v 13.070071 l 0.84375,-0.0719 c 0.46406,-0.0395 2.925,-0.18626 5.46875,-0.32603 z"
     id="path1857"
     transform="scale(0.75)" />
  <path
     style="fill:#ffffff;stroke-width:0.125"
     d="M 145.4375,105.875 V 73.1875 l 0.78125,-1.26e-4 c 1.25229,-2e-4 16.81822,0.608668 19.21875,0.75175 3.06003,0.182392 5.19864,0.459034 6.875,0.889324 3.53674,0.907815 8.02291,3.819796 10.91447,7.084606 3.8164,4.309031 6.06401,9.71782 7.04852,16.961946 0.3113,2.29065 0.30982,10.2071 -0.002,12.6875 -0.88635,7.0419 -2.53486,11.63 -5.74881,16 -1.7015,2.31353 -5.12883,5.39529 -7.77429,6.99044 -3.04891,1.83842 -6.73008,3.00513 -11.25,3.56558 -2.83051,0.35097 -5.50758,0.44398 -12.77912,0.44398 h -7.28338 z m 20.61111,24.38875 c 7.73351,-1.67377 12.60033,-6.96368 14.50909,-15.77038 0.90222,-4.16269 1.07,-9.92447 0.43842,-15.05587 -1.38691,-11.26835 -6.41164,-16.751472 -17.12112,-18.683017 -1.48126,-0.267157 -8.56429,-1.191983 -9.12913,-1.191983 -0.16056,0 -0.18337,3.181087 -0.18337,25.5735 v 25.57351 l 4.96875,-0.0553 c 4.8144,-0.0536 5.01686,-0.0657 6.51736,-0.39047 z"
     id="path1896"
     transform="scale(0.75)" />
  <path
     style="fill:#ffffff;stroke-width:0.125"
     d="M 205.4375,106 V 73.4375 h 19.25 19.25 v 3.25 3.25 H 229.25 214.5625 v 11.375 11.375 h 13.375 13.375 v 3.9375 3.9375 h -13.375 -13.375 v 14 14 H 210 205.4375 Z"
     id="path1935"
     transform="scale(0.75)" />
  <path
     style="fill:#ffffff"
     d="m 367.99027,83.25 c -0.30131,-1.2375 -0.42238,-18.33994 -0.26905,-38.005421 L 368,9.4891574 405.99506,47.494579 443.99013,85.5 H 406.26412 368.5381 Z"
     id="path1974"
     transform="scale(0.75)" />
  <path
     style="fill:#ffffff"
     d="m 238.75553,340.75 c 0.6937,-1.5125 6.23871,-12.875 12.32225,-25.25 6.08354,-12.375 11.95714,-24.47806 13.05245,-26.89569 l 1.99148,-4.39568 5.91493,8.89568 c 3.28726,4.94383 11.15798,14.28591 17.7171,21.02915 l 11.80215,12.13347 -3.77794,0.67922 c -8.58112,1.54276 -35.85515,8.76268 -47.30488,12.52244 -6.75236,2.21727 -12.43492,4.03141 -12.62791,4.03141 -0.19299,0 0.21667,-1.2375 0.91037,-2.75 z"
     id="path2013"
     transform="scale(0.75)" />
</svg>
